<svg width="93" height="27" viewBox="0 0 93 27" fill="none" xmlns="http://www.w3.org/2000/svg">
<g clip-path="url(#clip0)">
<path d="M27.588 6.42114C27.5558 6.1411 27.3714 5.89325 27.0957 5.77187L14.1613 0.0765588C13.9301 -0.0251941 13.6632 -0.0251941 13.432 0.0765588L0.497597 5.77187C0.221987 5.89325 0.0375637 6.14105 0.00528155 6.42114C0.00458094 6.42698 0 6.50489 0 6.50916V20.3406C0 20.6733 0.214657 20.9725 0.54206 21.096L13.4765 25.9777C13.5792 26.0165 13.688 26.0359 13.7967 26.0359C13.9054 26.0359 14.0142 26.0166 14.1169 25.9777L27.0513 21.096C27.3787 20.9725 27.5934 20.6733 27.5934 20.3406V6.50916C27.5934 6.50489 27.5887 6.42693 27.588 6.42114V6.42114ZM13.7967 1.71167L24.5616 6.4517L20.4164 8.01618L9.44896 3.62611L13.7967 1.71167ZM7.34621 4.55201L18.1435 8.87398L13.7967 10.5145L3.03183 6.4517L7.34621 4.55201ZM1.72459 7.71087L12.9344 11.9417V24.0206L1.72459 19.7898V7.71087ZM14.659 24.0206V11.9417L25.8688 7.71087V19.7898L14.659 24.0206Z" fill="#0A143A"/>
</g>
<path d="M44.8815 18.4844H38.7175L37.5456 22H33.8073L40.1589 4.9375H43.4167L49.8034 22H46.0651L44.8815 18.4844ZM39.6667 15.6367H43.9323L41.7878 9.25L39.6667 15.6367ZM62.6003 15.7773C62.6003 17.8086 62.1667 19.3945 61.2995 20.5352C60.4323 21.668 59.2214 22.2344 57.6667 22.2344C56.2917 22.2344 55.194 21.707 54.3737 20.6523L54.2214 22H51.1745V4H54.5612V10.457C55.3425 9.54297 56.3698 9.08594 57.6432 9.08594C59.1901 9.08594 60.4011 9.65625 61.2761 10.7969C62.1589 11.9297 62.6003 13.5273 62.6003 15.5898V15.7773ZM59.2136 15.5312C59.2136 14.25 59.0104 13.3164 58.6042 12.7305C58.1979 12.1367 57.5925 11.8398 56.7878 11.8398C55.7097 11.8398 54.9675 12.2812 54.5612 13.1641V18.168C54.9753 19.0586 55.7253 19.5039 56.8112 19.5039C57.905 19.5039 58.6237 18.9648 58.9675 17.8867C59.1315 17.3711 59.2136 16.5859 59.2136 15.5312ZM68.2722 22H64.8737V9.32031H68.2722V22ZM64.6745 6.03906C64.6745 5.53125 64.8425 5.11328 65.1784 4.78516C65.5222 4.45703 65.987 4.29297 66.5729 4.29297C67.1511 4.29297 67.612 4.45703 67.9557 4.78516C68.2995 5.11328 68.4714 5.53125 68.4714 6.03906C68.4714 6.55469 68.2956 6.97656 67.944 7.30469C67.6003 7.63281 67.1432 7.79688 66.5729 7.79688C66.0026 7.79688 65.5417 7.63281 65.1901 7.30469C64.8464 6.97656 64.6745 6.55469 64.6745 6.03906ZM75.1276 6.20312V9.32031H77.2956V11.8047H75.1276V18.1328C75.1276 18.6016 75.2175 18.9375 75.3972 19.1406C75.5768 19.3438 75.9206 19.4453 76.4284 19.4453C76.8034 19.4453 77.1354 19.418 77.4245 19.3633V21.9297C76.7604 22.1328 76.0768 22.2344 75.3737 22.2344C72.9987 22.2344 71.7878 21.0352 71.7409 18.6367V11.8047H69.8893V9.32031H71.7409V6.20312H75.1276ZM78.3034 15.543C78.3034 14.2852 78.5456 13.1641 79.03 12.1797C79.5143 11.1953 80.2097 10.4336 81.1159 9.89453C82.03 9.35547 83.0886 9.08594 84.2917 9.08594C86.0026 9.08594 87.3972 9.60938 88.4753 10.6562C89.5612 11.7031 90.1667 13.125 90.2917 14.9219L90.3151 15.7891C90.3151 17.7344 89.7722 19.2969 88.6862 20.4766C87.6003 21.6484 86.1432 22.2344 84.3151 22.2344C82.487 22.2344 81.0261 21.6484 79.9323 20.4766C78.8464 19.3047 78.3034 17.7109 78.3034 15.6953V15.543ZM81.6901 15.7891C81.6901 16.9922 81.9167 17.9141 82.3698 18.5547C82.8229 19.1875 83.4714 19.5039 84.3151 19.5039C85.1354 19.5039 85.7761 19.1914 86.237 18.5664C86.6979 17.9336 86.9284 16.9258 86.9284 15.543C86.9284 14.3633 86.6979 13.4492 86.237 12.8008C85.7761 12.1523 85.1276 11.8281 84.2917 11.8281C83.4636 11.8281 82.8229 12.1523 82.3698 12.8008C81.9167 13.4414 81.6901 14.4375 81.6901 15.7891Z" fill="#0A143A"/>
<defs>
<clipPath id="clip0">
<rect width="27.5934" height="26.0357" fill="white"/>
</clipPath>
</defs>
</svg>
